<svg width="800" height="600" xmlns="http://www.w3.org/2000/svg">

 <g>
  <title>Layer 1</title>
  <path stroke-width="7" d="m382,175c-1,0 -3.02676,0.77025 -4,1c-2.17624,0.51375 -4.0535,1.5405 -6,2c-2.17624,0.51375 -4.08582,1.42043 -6,2c-3.45084,1.04483 -5,2 -7,3c-2,1 -4,1 -6,2c-2,1 -4.186,0.69255 -6,2c-1.14728,0.8269 -3.85272,1.1731 -5,2c-1.814,1.30745 -3.82376,1.48625 -6,2c-0.97324,0.22975 -1.82376,0.48625 -4,1c-0.97324,0.22975 -2.15225,0.23463 -4,1c-1.30655,0.5412 -2.15225,1.23463 -4,2c-1.30655,0.5412 -3.02676,1.77025 -4,2c-2.17624,0.51375 -3,1 -5,2c-2,1 -4,2 -6,3c-2,1 -4.31,1.33749 -7,3c-2.40601,1.487 -3.88153,3.19028 -7,5c-1.93399,1.12234 -3.85272,2.1731 -5,3c-1.814,1.30745 -3.186,1.69255 -5,3c-1.14728,0.8269 -2.186,1.69255 -4,3c-1.14728,0.8269 -2,2 -4,4c-1,1 -1.69254,2.186 -3,4c-0.8269,1.14726 -2,2 -3,3c-1,1 -2.1731,2.85274 -3,4c-1.30746,1.814 -2,3 -3,4c-1,1 -1.61731,2.07613 -2,3c-0.5412,1.30656 -1.29291,1.29289 -2,2c-0.70709,0.70711 -1,2 -1,2c-1,1 -1,2 -1,2c-1,1 -1,2 -1,2c0,1 -1,1 -1,1c0,0 -0.29291,0.29289 -1,1c-0.70711,0.70711 0,1 0,1c0,1 0,0 0,0c0,0 -0.70711,-0.29289 0,-1c0.70709,-0.70711 1,0 1,0c1,-1 1,-1 1,-1c0,0 1,-1 1,-1c1,0 1,0 2,-1c0,0 0.82376,-0.48625 3,-1c0.97324,-0.22975 3.01291,-0.83981 4,-1c3.12143,-0.50655 5,-1 8,-1c5,0 9,-1 13,-1c5,0 9,0 13,0c4,0 7,0 12,0c4,0 7,0 10,0c3,0 5,0 8,0c3,0 5.03873,0.48055 8,0c3.12143,-0.50655 5,-1 8,-1c2,0 4.87857,-0.49345 8,-1c1.97418,-0.32036 4.87857,-0.49345 8,-1c2.96127,-0.48055 4.87857,-0.49345 8,-1c2.96127,-0.48055 5.08026,-0.31075 8,-1c2.17624,-0.51375 3.82376,-1.48625 6,-2c0.97324,-0.22975 3.07611,0.38269 4,0c1.30655,-0.5412 3,-1 4,-1c1,0 2.69345,-0.4588 4,-1c0.92389,-0.38269 2,0 3,0c1,0 2,0 3,0c1,0 2,0 3,0c1,0 1,0 2,0c1,0 1,0 1,0c1,0 1,0 2,0c0,0 0,0 1,0l0,0l0,0l0,0" id="svg_19" stroke="#000" fill="#D3BEE7"/>
  <path stroke-width="7" d="m286,246c2,1 7.75629,5.36009 15,10c6.78894,4.3486 12,7 18,10c6,3 9.87604,4.34314 15,6c3.9231,1.26855 7.96384,2.11588 11,3c3.95868,1.15277 5.87857,2.49347 9,3c2.96127,0.48056 4.82376,0.48627 7,1c1.9465,0.4595 4,1 6,1c2,0 3.15225,-0.76538 5,0c1.30655,0.5412 3,1 4,1c1,0 2,1 3,1c1,0 2,0 3,0c1,0 2,0 3,0c0,0 1,0 2,0c0,0 1,0 2,0c0,0 1,-1 2,-1c0,0 0.69345,-0.4588 2,-1c0.92389,-0.38269 1,0 2,0c1,0 1,-1 2,-1c1,0 1.29291,-0.29291 2,-1c1.41422,-1.41422 3.07611,-0.61731 4,-1c1.30655,-0.5412 3,-1 4,-2c1,-1 2.69345,-1.4588 4,-2c0.92389,-0.38269 2.69345,-1.4588 4,-2c0.92389,-0.38269 3.07611,-0.61731 4,-1c1.30655,-0.5412 1.29291,-1.29291 2,-2c0.70709,-0.70709 2,0 3,-1c0,0 1,0 2,0c0,0 1,-1 1,-1c1,0 1,0 2,-1c0,0 1,0 1,0c1,0 1,-1 1,-1c1,0 1,-1 1,-1l0,0l1,0l0,0" id="svg_21" stroke="#000" fill="#D3BEE7"/>
  <path stroke-width="7" d="m382,171c0,-1 -0.48627,-1.82375 -1,-4c-0.91901,-3.89299 0,-7 0,-12c0,-5 0,-9 0,-14c0,-3 0,-6 0,-10c0,-2 0.63345,-5.02248 1,-8c0.50378,-4.09222 0.33197,-6.22936 2,-10c1.45865,-3.29733 1.71411,-5.21168 4,-8c0.89661,-1.09367 2,-3 3,-5c1,-2 2,-3 3,-4c1,-1 0.69254,-2.186 2,-4c0.8269,-1.14727 2.186,-1.69255 4,-3c1.14728,-0.8269 2.31,-2.33749 5,-4c2.40601,-1.48699 3.48532,-3.85114 8,-6c3.7229,-1.772 7.96384,-3.11587 11,-4c3.95868,-1.15277 7.04132,-1.84723 11,-3c3.03616,-0.88413 6.05164,-1.35927 10,-2c3.12143,-0.50654 5.90778,-1.49622 10,-2c2.97751,-0.36655 7.02582,-0.32037 9,0c3.12143,0.50654 6.87857,1.49346 10,2c2.96127,0.48055 7.01498,0.75563 9,1c4.09222,0.50378 7,2 10,3c3,1 5.0535,1.5405 7,2c2.17624,0.51374 4,2 6,3c2,1 4.07611,1.61732 5,2c1.30658,0.5412 1.85272,2.1731 3,3c1.81396,1.30745 3.85272,3.1731 5,4c1.81396,1.30745 4,3 6,5c2,2 3.71411,5.21168 6,8c2.68976,3.28101 5.83466,7.08555 9,13c3.80426,7.10829 7.17755,11.91447 10,18c3.20435,6.90886 5.54694,12.84464 7,19c1.62457,6.88191 2.49756,11.9258 3,17c0.29559,2.9854 0,6 0,9c0,2 -0.4588,2.69344 -1,4c-0.38269,0.92387 0.38269,2.07613 0,3c-0.5412,1.30656 -1,2 -1,3c0,1 -0.54047,2.0535 -1,4c-0.51373,2.17625 -3.19031,4.88152 -5,8c-1.12231,1.93399 -3.34619,4.70546 -5,7c-1.30743,1.814 -2.33746,4.31001 -4,7c-1.487,2.40601 -3.33746,4.31001 -5,7c-1.487,2.40601 -4.69238,4.41092 -8,9c-2.61493,3.62799 -6.22052,8.83128 -10,14c-2.12817,2.91046 -6,8 -8,11c-2,3 -7.20682,8.81265 -9,11c-2.28589,2.78833 -3,5 -4,6c-1,1 -2,3 -3,4c-1,1 -2,3 -3,4c-1,1 -2.69254,3.186 -4,5c-0.8269,1.14728 -2.513,2.59399 -4,5c-1.66251,2.69 -3.84796,6.07971 -6,10c-2.80591,5.11145 -5.55038,8.64117 -8,13c-2.63834,4.69461 -2.61066,9.15927 -4,12c-1.58411,3.23892 -2.4588,4.69345 -3,6c-0.76538,1.84775 -1,3 -1,5c0,1 -0.77023,3.02676 -1,4c-0.51373,2.17624 -1.48627,2.82376 -2,5c-0.22977,0.97324 0,3 0,4c0,2 -1,4 -1,6c0,1 0,4 0,5c0,3 -0.48627,3.82376 -1,6c-0.4595,1.9465 0,4 0,5c0,1 0,3 0,4c0,1 0,2 0,3c0,2 0,4 0,7c0,9 0.64557,16.01257 1,21c0.50125,7.05328 2,12 2,15c0,2 1,4 1,5c0,1 0,2 0,3c0,0 0,1 0,1c0,0 0,1 0,1c0,0 0,1 0,1c0,0 -1,1 -1,3c0,2 0,4 0,6c0,1 0,3 0,4c0,0 0,1 0,2c0,0 0,1 0,2c0,0 0,1 0,2c0,0 0,1 0,1c0,1 0,1 0,2c0,0 0,0 0,1c0,0 0,0 0,1c0,0 0,1 0,1c0,1 0,1 0,2c0,0 0,0 0,0l0,1" id="svg_22" stroke="#000" fill="#D3BEE7"/>
  <path stroke-width="7" d="m440,124c0,1 -0.4588,1.69344 -1,3c-0.76538,1.84776 -1.48627,2.82375 -2,5c-0.22977,0.97325 -0.61731,2.07613 -1,3c-0.5412,1.30656 -0.61731,2.07613 -1,3c-0.5412,1.30656 -1,2 -1,3c0,0 -1,1 -1,1c0,1 0,1 0,2c0,0 0,1 0,1c0,1 0,1 0,2c0,0 0,0 0,1c0,0 0,0 0,1c0,0 0.29291,0.29289 1,1c0.70709,0.70711 -0.70709,1.29289 0,2c0.70709,0.70711 1,1 1,2c0,0 0.29291,1.29289 1,2c0.70709,0.70711 1,1 2,2c0,0 1,1 1,2c0,1 1.07611,0.61731 2,1c1.30655,0.5412 0.69345,1.4588 2,2c0.92389,0.38269 1,0 2,1c0,0 1,0 2,0c0,0 1,0 2,0c1,0 2,0 2,0c1,0 2,0 3,0c1,0 1.69345,-0.4588 3,-1c0.92389,-0.38269 2,0 3,0c1,0 1,-1 2,-1c1,0 0.69345,-0.4588 2,-1c0.92389,-0.38269 1,-1 2,-1c0,0 1.29291,-0.29289 2,-1c0.70709,-0.70711 1,-1 2,-2c0,0 0.69345,-0.4588 2,-1c0.92389,-0.38269 1.07611,-0.61731 2,-1c1.30655,-0.5412 1.29291,-1.29289 2,-2c0.70709,-0.70711 1.4588,-1.69344 2,-3c0.38269,-0.92387 1,-1 1,-2c0,-1 0.4588,-0.69344 1,-2c0.38269,-0.92387 0,-1 0,-2c0,-1 0,-2 0,-2c0,-1 0,-2 0,-2c0,-1 0,-2 0,-3c0,-1 0,-2 0,-2c0,-2 -0.4588,-2.69344 -1,-4c-0.76538,-1.84776 -0.4588,-2.69344 -1,-4c-0.76538,-1.84776 -1,-2 -1,-3c0,-1 0.70709,-2.29289 0,-3c-0.70709,-0.70711 -1,-1 -1,-2c0,0 -1,0 -1,-1c0,0 0,-1 -1,-1c0,0 0.70709,-0.29289 0,-1c-0.70709,-0.70711 -1,0 -2,0c0,0 -1,0 -1,0c0,0 -1,0 -1,0c0,0 -1,0 -1,0c-1,0 -1,0 -2,0c0,0 -1,0 -1,0c0,0 -1,0 -1,0c-1,0 -1.29291,-0.70711 -2,0c-0.70709,0.70711 -1,1 -2,1c0,0 -1,1 -2,1c0,0 -0.69345,0.4588 -2,1c-0.92389,0.38268 -1.29291,-0.70711 -2,0c-0.70709,0.70711 -1,1 -1,1c-1,0 -1.29291,0.29289 -2,1c-0.70709,0.70711 -2,0 -2,0c-1,1 -2,1 -2,1c-1,0 -1.29291,0.29289 -2,1c-0.70709,0.70711 -2.29291,-0.70711 -3,0c-0.70709,0.70711 -1,1 -2,1c0,0 -1,0 -2,1c0,0 -2,1 -2,1c-1,1 -1.29291,1.29289 -2,2c-0.70709,0.70711 -2,0 -2,0c-1,1 -1,1 -1,1c-1,0 -1,1 -2,1c0,0 -1,0 -1,0l0,1l0,0l-1,0" id="svg_23" stroke="#000" fill="#D3BEE7"/>
  <path d="m396,282c1,4 0.64072,9.06082 2,16c1.58521,8.09241 2.99246,12.81558 4,21c0.73309,5.95505 1.49829,11.93796 2,18c0.57736,6.97614 1,11 1,16c0,4 0,7 0,10c0,3 0,5 0,7c0,1 0,2 0,4c0,2 0,4 0,6c0,2 0,4 0,6c0,2 -1,4 -1,6c0,1 0,3 0,4c0,1 0,2 0,3c0,1 0,2 0,3c0,0 0,1 0,2c0,1 -1,2 -1,3c0,1 0,1 0,2c0,1 -1,2 -1,3c0,1 0,1 0,2c0,1 0,2 0,3c0,1 0,2 0,3c0,1 0,1 0,2c0,1 0,2 0,3c0,1 0,2 0,3c0,1 0,2 0,3c0,1 0,3 0,4c0,1 0,2 0,3c0,1 0,3 0,4c0,1 0,3 0,4c0,1 0,2 0,3c0,2 0,3 0,4c0,1 0,2 0,2c0,1 0,2 0,3c0,1 0,2 0,3c0,1 0,1 0,2c0,1 0,1 0,2l0,1l0,0l0,1" id="svg_24" stroke="#000" fill="none"/>
  <text transform="rotate(-0.548205 406.621 308.501) matrix(1.81013 0 0 5.01679 -304.583 -1245.81)" stroke="#000" xml:space="preserve" text-anchor="start" font-family="Noto Sans JP" font-size="24" stroke-width="0" id="svg_25" y="317.90896" x="334.27872" fill="#000000">marketplace</text>
 </g>
</svg>